<svg width="496" height="496" viewBox="0 0 496 496" fill="none" xmlns="http://www.w3.org/2000/svg">
<path d="M169.974 98.6778C154.846 104.393 144.006 118.904 144.006 136.005C144.006 142.591 145.76 148.72 148.592 154.208C136.592 158.821 128.006 170.391 128.006 184.004C128.006 197.621 136.592 209.187 148.592 213.805C145.76 219.293 144.006 225.422 144.006 232.003C144.006 249.109 154.846 263.62 169.974 269.331C168.775 272.682 168.005 276.245 168.005 280.003C168.005 297.651 182.357 312.002 200.005 312.002C203.989 312.002 207.766 311.178 211.286 309.85C216.469 320.549 227.34 328.002 240.004 328.002C257.652 328.002 272.003 313.65 272.003 296.002V72.0065C272.003 54.3623 257.652 40.0071 240.004 40.0071C227.34 40.0071 216.469 47.464 211.286 58.1591C207.766 56.831 203.989 56.0068 200.005 56.0068C182.357 56.0068 168.005 70.362 168.005 88.0062C168.005 91.7678 168.775 95.3264 169.974 98.6778ZM200.005 72.0065C208.829 72.0065 216.005 79.1821 216.005 88.0062H232.004C232.004 80.3188 229.164 73.3424 224.629 67.823C226.485 61.0418 232.637 56.0068 240.004 56.0068C248.828 56.0068 256.004 63.1824 256.004 72.0065V296.002C256.004 304.826 248.828 312.002 240.004 312.002C232.637 312.002 226.485 306.971 224.629 300.186C229.164 294.666 232.004 287.694 232.004 280.003H216.005C216.005 288.827 208.829 296.002 200.005 296.002C191.181 296.002 184.005 288.827 184.005 280.003C184.005 271.179 191.181 264.003 200.005 264.003V248.003C192.212 248.003 185.157 250.917 179.607 255.558C168.47 253.484 160.006 243.734 160.006 232.003C160.006 218.773 170.775 208.004 184.005 208.004C197.239 208.004 208.005 218.773 208.005 232.003H224.004C224.004 209.949 206.063 192.004 184.005 192.004C174.966 192.004 166.709 195.133 160.006 200.215V200.004C151.182 200.004 144.006 192.828 144.006 184.004C144.006 175.18 151.182 168.005 160.006 168.005V167.798C166.709 172.88 174.966 176.005 184.005 176.005C206.063 176.005 224.004 158.063 224.004 136.005H208.005C208.005 149.239 197.239 160.005 184.005 160.005C170.775 160.005 160.006 149.239 160.006 136.005C160.006 124.279 168.47 114.529 179.607 112.455C185.157 117.095 192.212 120.006 200.005 120.006V104.006C191.181 104.006 184.005 96.8302 184.005 88.0062C184.005 79.1821 191.181 72.0065 200.005 72.0065V72.0065Z" fill="#8A2CE2"/>
<path d="M360.002 56.0068C356.017 56.0068 352.244 56.831 348.725 58.1591C343.537 47.464 332.666 40.0071 320.003 40.0071C302.354 40.0071 288.003 54.3623 288.003 72.0065V296.002C288.003 313.65 302.354 328.002 320.003 328.002C332.666 328.002 343.537 320.549 348.725 309.85C352.244 311.178 356.017 312.002 360.002 312.002C377.65 312.002 392.001 297.651 392.001 280.003C392.001 276.245 391.236 272.682 390.032 269.331C405.161 263.62 416.001 249.109 416.001 232.003C416.001 225.422 414.251 219.293 411.419 213.805C423.419 209.187 432 197.621 432 184.004C432 170.391 423.419 158.821 411.419 154.208C414.251 148.72 416.001 142.591 416.001 136.005C416.001 118.904 405.161 104.393 390.032 98.6778C391.236 95.3264 392.001 91.7678 392.001 88.0062C392.001 70.362 377.65 56.0068 360.002 56.0068V56.0068ZM400.001 136.005C400.001 149.239 389.236 160.005 376.001 160.005C362.771 160.005 352.002 149.239 352.002 136.005H336.002C336.002 158.063 353.947 176.005 376.001 176.005C385.04 176.005 393.298 172.88 400.001 167.798V168.005C408.825 168.005 416.001 175.18 416.001 184.004C416.001 192.828 408.825 200.004 400.001 200.004V200.215C393.298 195.133 385.04 192.004 376.001 192.004C353.947 192.004 336.002 209.949 336.002 232.003H352.002C352.002 218.773 362.771 208.004 376.001 208.004C389.236 208.004 400.001 218.773 400.001 232.003C400.001 243.734 391.536 253.484 380.404 255.558C374.849 250.917 367.795 248.003 360.002 248.003V264.003C368.826 264.003 376.001 271.179 376.001 280.003C376.001 288.827 368.826 296.002 360.002 296.002C351.178 296.002 344.002 288.827 344.002 280.003H328.002C328.002 287.694 330.842 294.666 335.377 300.186C333.522 306.971 327.37 312.002 320.003 312.002C311.178 312.002 304.003 304.826 304.003 296.002V72.0065C304.003 63.1824 311.178 56.0068 320.003 56.0068C327.37 56.0068 333.522 61.0418 335.377 67.823C330.842 73.3424 328.002 80.3188 328.002 88.0062H344.002C344.002 79.1821 351.178 72.0065 360.002 72.0065C368.826 72.0065 376.001 79.1821 376.001 88.0062C376.001 96.8302 368.826 104.006 360.002 104.006V120.006C367.795 120.006 374.849 117.095 380.404 112.455C391.536 114.529 400.001 124.279 400.001 136.005V136.005Z" fill="#8A2CE2"/>
<path d="M405.977 49.8975C368.595 14.7615 319.635 -2.85538 268.254 0.378934L269.246 16.3435C316.194 13.4256 360.881 29.4799 395.025 61.5536C429.184 93.6545 448 137.15 448 184.004C448 240.468 419.856 292.827 372.713 324.068C356.451 334.849 344.147 350.228 336.565 368.001H223.11C215.422 350.099 203.071 334.611 186.782 323.732C138.197 291.26 110.28 237.031 112.096 178.645L96.1044 178.149C94.1123 242.085 124.694 301.483 177.896 337.029C189.646 344.884 199.028 355.579 205.567 368.001H184.005V384.001H211.95C213.501 389.184 214.743 394.497 215.372 400H200.005V416H216.005V440C216.005 444.425 219.59 447.999 224.004 447.999H232.004C232.004 474.472 253.531 495.999 280.003 495.999C306.475 495.999 328.002 474.472 328.002 447.999H336.002C340.42 447.999 344.002 444.425 344.002 440V416H360.002V400H344.565C345.131 394.504 346.26 389.176 347.779 384.001H376.002V368.001H354.092C360.537 355.716 369.865 345.154 381.556 337.412C433.176 303.178 464 245.835 464 184.004C464 133.431 442.848 84.5453 405.977 49.8975V49.8975ZM280.003 479.999C262.355 479.999 248.004 465.648 248.004 447.999H312.003C312.003 465.648 297.651 479.999 280.003 479.999ZM328.002 432H232.004V416H328.002V432ZM328.573 400H231.364C230.828 394.555 229.965 389.204 228.653 384.001H331.061C329.788 389.196 329.049 394.571 328.573 400Z" fill="#8A2CE2"/>
<path d="M88.0069 56.0068C105.655 56.0068 120.006 70.362 120.006 88.0062C120.006 92.4319 123.592 96.006 128.006 96.006C132.424 96.006 136.006 92.4319 136.006 88.0062C136.006 70.362 150.357 56.0068 168.005 56.0068C172.423 56.0068 176.005 52.4326 176.005 48.0069C176.005 43.5851 172.423 40.0071 168.005 40.0071C150.357 40.0071 136.006 25.6558 136.006 8.00766C136.006 3.58587 132.424 0.0078125 128.006 0.0078125C123.592 0.0078125 120.006 3.58587 120.006 8.00766C120.006 25.6558 105.655 40.0071 88.0069 40.0071C83.593 40.0071 80.0071 43.5851 80.0071 48.0069C80.0071 52.4326 83.593 56.0068 88.0069 56.0068ZM128.006 34.5111C131.561 39.8547 136.158 44.4562 141.502 48.0069C136.158 51.5615 131.561 56.1591 128.006 61.5027C124.455 56.1591 119.854 51.5615 114.51 48.0069C119.854 44.4562 124.455 39.8547 128.006 34.5111Z" fill="#8A2CE2"/>
<path d="M120.006 136.005C124.424 136.005 128.006 132.431 128.006 128.005C128.006 123.584 124.424 120.006 120.006 120.006C102.358 120.006 88.0069 105.654 88.0069 88.0062C88.0069 83.5844 84.4249 80.0063 80.0071 80.0063C75.5931 80.0063 72.0072 83.5844 72.0072 88.0062C72.0072 105.654 57.6559 120.006 40.0078 120.006C35.5938 120.006 32.008 123.584 32.008 128.005C32.008 132.431 35.5938 136.005 40.0078 136.005C57.6559 136.005 72.0072 150.36 72.0072 168.005C72.0072 172.43 75.5931 176.005 80.0071 176.005C84.4249 176.005 88.0069 172.43 88.0069 168.005C88.0069 150.36 102.358 136.005 120.006 136.005ZM80.0071 141.501C76.4563 136.158 71.8549 131.56 66.5112 128.005C71.8549 124.455 76.4485 119.853 80.0071 114.51C83.5617 119.853 88.1593 124.447 93.5029 128.005C88.1593 131.56 83.5617 136.158 80.0071 141.501Z" fill="#8A2CE2"/>
</svg>
