<svg width="313" height="313" viewBox="0 0 313 313" fill="none" xmlns="http://www.w3.org/2000/svg">
<g clip-path="url(#clip0)">
<path d="M302.553 0H10C4.477 0 0 4.478 0 10V302.553C0 308.075 4.477 312.553 10 312.553H302.553C308.076 312.553 312.553 308.075 312.553 302.553V10C312.553 4.478 308.076 0 302.553 0ZM143.625 173.732C143.625 192.347 133.191 203.911 116.393 203.911C105.843 203.911 96.415 198.619 89.846 189.01C86.941 184.759 88.031 178.957 92.282 176.051C96.534 173.145 102.337 174.237 105.241 178.487C108.315 182.985 112.067 185.265 116.393 185.265C119.812 185.265 124.979 185.265 124.979 173.733V126.266H99.504C94.355 126.266 90.181 122.092 90.181 116.943C90.181 111.794 94.355 107.62 99.504 107.62H134.302C139.451 107.62 143.625 111.794 143.625 116.943V173.732V173.732ZM189.441 205.6C176.942 205.6 164.19 200.33 156.162 191.847C152.622 188.107 152.785 182.205 156.524 178.666C160.265 175.126 166.168 175.289 169.705 179.028C174.191 183.768 182.122 186.953 189.441 186.953C196.934 186.953 205.685 184.765 205.685 178.602C205.733 172.792 202.64 170.616 188.27 166.263C175.593 162.424 156.435 156.621 156.435 134.538C156.435 118.038 170.741 106.952 192.034 106.952C201.513 106.952 211.849 109.826 219.009 114.454C223.333 117.249 224.573 123.021 221.778 127.346C218.982 131.67 213.21 132.91 208.886 130.115C204.774 127.457 197.844 125.599 192.034 125.599C184.214 125.599 175.082 127.941 175.082 134.538C175.082 141.703 179.271 144.054 193.676 148.417C205.953 152.135 224.506 157.754 224.332 178.679C224.331 194.75 210.31 205.6 189.441 205.6Z" fill="#8A2CE2"/>
</g>
<defs>
<clipPath id="clip0">
<rect width="312.553" height="312.553" fill="white"/>
</clipPath>
</defs>
</svg>
