<svg width="95" height="95" viewBox="0 0 95 95" fill="none" xmlns="http://www.w3.org/2000/svg">
<g clip-path="url(#clip0)">
<path d="M93.918 45.833L69.799 21.714C69.049 20.964 67.722 20.964 66.972 21.714L61.743 26.943C60.962 27.724 60.962 28.99 61.743 29.771L79.22 47.246L61.744 64.724C60.963 65.505 60.963 66.771 61.744 67.552L66.973 72.781C67.348 73.156 67.857 73.368 68.387 73.368C68.916 73.368 69.426 73.156 69.801 72.781L93.918 48.663C94.699 47.881 94.699 46.614 93.918 45.833Z" fill="#8A2CE2"/>
<path d="M32.759 64.724L15.285 47.248L32.762 29.773C33.137 29.398 33.348 28.89 33.348 28.359C33.348 27.829 33.138 27.32 32.762 26.945L27.533 21.716C27.158 21.341 26.649 21.13 26.119 21.13C25.589 21.13 25.08 21.341 24.705 21.716L0.585018 45.833C-0.195982 46.614 -0.195982 47.88 0.585018 48.662L24.704 72.78C25.079 73.155 25.588 73.367 26.118 73.367C26.648 73.367 27.157 73.155 27.532 72.78L32.761 67.551C33.542 66.771 33.542 65.505 32.759 64.724Z" fill="#8A2CE2"/>
<path d="M60.967 13.6C60.713 13.134 60.285 12.788 59.777 12.638L55.538 11.387C54.48 11.073 53.366 11.68 53.054 12.739L33.375 79.382C33.225 79.891 33.283 80.438 33.536 80.903C33.789 81.37 34.218 81.715 34.726 81.866L38.965 83.117C39.154 83.173 39.345 83.2 39.532 83.2C40.395 83.2 41.192 82.636 41.449 81.765L61.128 15.121C61.278 14.612 61.221 14.065 60.967 13.6Z" fill="#8A2CE2"/>
</g>
<defs>
<clipPath id="clip0">
<rect width="94.504" height="94.504" fill="white"/>
</clipPath>
</defs>
</svg>
